<?xml version="1.0" encoding="UTF-8" standalone="no"?>
<svg
   height="463.90mm"
   viewBox="0.0 0.0 331.90 463.90"
   width="331.90mm"
   version="1.1"
   id="svg2007"
   sodipodi:docname="botom.svg"
   inkscape:version="1.1.1 (3bf5ae0d25, 2021-09-20)"
   xmlns:inkscape="http://www.inkscape.org/namespaces/inkscape"
   xmlns:sodipodi="http://sodipodi.sourceforge.net/DTD/sodipodi-0.dtd"
   xmlns="http://www.w3.org/2000/svg"
   xmlns:svg="http://www.w3.org/2000/svg"
   xmlns:rdf="http://www.w3.org/1999/02/22-rdf-syntax-ns#"
   xmlns:cc="http://creativecommons.org/ns#"
   xmlns:dc="http://purl.org/dc/elements/1.1/">
  <defs
     id="defs2011" />
  <sodipodi:namedview
     id="namedview2009"
     pagecolor="#ffffff"
     bordercolor="#666666"
     borderopacity="1.0"
     inkscape:pageshadow="2"
     inkscape:pageopacity="0.0"
     inkscape:pagecheckerboard="0"
     inkscape:document-units="mm"
     showgrid="false"
     inkscape:zoom="0.29657973"
     inkscape:cx="628.83597"
     inkscape:cy="392.81175"
     inkscape:window-width="1366"
     inkscape:window-height="705"
     inkscape:window-x="-8"
     inkscape:window-y="-8"
     inkscape:window-maximized="1"
     inkscape:current-layer="svg2007" />
  <!--
ElectronicsBox - Closed box with screw on top and mounting holes

Created with Boxes.py (https://festi.info/boxes.py)
Creation date: 2022-01-06 10:33:15
Command line (remove spaces between dashes): boxes ElectronicsBox - -FingerJoint_angle=90.0 - -FingerJoint_style=rectangular - -FingerJoint_surroundingspaces=2.0 - -FingerJoint_edge_width=1.0 - -FingerJoint_finger=2.0 - -FingerJoint_play=0.0 - -FingerJoint_space=2.0 - -FingerJoint_width=1.0 - -x=210.0 - -y=100.0 - -h=100.0 - -outside=0 - -outside=1 - -triangle=25.0 - -d1=2.0 - -d2=3.0 - -d3=3.0 - -outsidemounts=0 - -outsidemounts=1 - -holedist=7.0 - -thickness=3.0 - -format=svg - -tabs=0.0 - -debug=0 - -labels=0 - -labels=1 - -reference=100 - -burn=0.1
Url: http://www.festi.info/ElectronicsBox?FingerJoint_angle=90.0&FingerJoint_style=rectangular&FingerJoint_surroundingspaces=2.0&FingerJoint_edge_width=1.0&FingerJoint_finger=2.0&FingerJoint_play=0.0&FingerJoint_space=2.0&FingerJoint_width=1.0&x=210.0&y=100.0&h=100.0&outside=0&outside=1&triangle=25.0&d1=2.0&d2=3.0&d3=3.0&outsidemounts=0&outsidemounts=1&holedist=7.0&thickness=3.0&format=svg&tabs=0.0&debug=0&labels=0&labels=1&reference=100&burn=0.1&render=1
SettingsUrl: http://www.festi.info/ElectronicsBox?FingerJoint_angle=90.0&FingerJoint_style=rectangular&FingerJoint_surroundingspaces=2.0&FingerJoint_edge_width=1.0&FingerJoint_finger=2.0&FingerJoint_play=0.0&FingerJoint_space=2.0&FingerJoint_width=1.0&x=210.0&y=100.0&h=100.0&outside=0&outside=1&triangle=25.0&d1=2.0&d2=3.0&d3=3.0&outsidemounts=0&outsidemounts=1&holedist=7.0&thickness=3.0&format=svg&tabs=0.0&debug=0&labels=0&labels=1&reference=100&burn=0.1
-->
  <title
     id="title1887">ElectronicsBox</title>
  <metadata
     id="metadata1889">
    <rdf:RDF>
      <cc:Work>
        <dc:title>ElectronicsBox</dc:title>
        <dc:date>2022-01-06 10:33:15</dc:date>
        <dc:source>http://www.festi.info/ElectronicsBox?FingerJoint_angle=90.0&amp;FingerJoint_style=rectangular&amp;FingerJoint_surroundingspaces=2.0&amp;FingerJoint_edge_width=1.0&amp;FingerJoint_finger=2.0&amp;FingerJoint_play=0.0&amp;FingerJoint_space=2.0&amp;FingerJoint_width=1.0&amp;x=210.0&amp;y=100.0&amp;h=100.0&amp;outside=0&amp;outside=1&amp;triangle=25.0&amp;d1=2.0&amp;d2=3.0&amp;d3=3.0&amp;outsidemounts=0&amp;outsidemounts=1&amp;holedist=7.0&amp;thickness=3.0&amp;format=svg&amp;tabs=0.0&amp;debug=0&amp;labels=0&amp;labels=1&amp;reference=100&amp;burn=0.1&amp;render=1</dc:source>
        <dc:description>Closed box with screw on top and mounting holes

Created with Boxes.py (https://festi.info/boxes.py)
Command line: boxes ElectronicsBox --FingerJoint_angle=90.0 --FingerJoint_style=rectangular --FingerJoint_surroundingspaces=2.0 --FingerJoint_edge_width=1.0 --FingerJoint_finger=2.0 --FingerJoint_play=0.0 --FingerJoint_space=2.0 --FingerJoint_width=1.0 --x=210.0 --y=100.0 --h=100.0 --outside=0 --outside=1 --triangle=25.0 --d1=2.0 --d2=3.0 --d3=3.0 --outsidemounts=0 --outsidemounts=1 --holedist=7.0 --thickness=3.0 --format=svg --tabs=0.0 --debug=0 --labels=0 --labels=1 --reference=100 --burn=0.1
Url: http://www.festi.info/ElectronicsBox?FingerJoint_angle=90.0&amp;FingerJoint_style=rectangular&amp;FingerJoint_surroundingspaces=2.0&amp;FingerJoint_edge_width=1.0&amp;FingerJoint_finger=2.0&amp;FingerJoint_play=0.0&amp;FingerJoint_space=2.0&amp;FingerJoint_width=1.0&amp;x=210.0&amp;y=100.0&amp;h=100.0&amp;outside=0&amp;outside=1&amp;triangle=25.0&amp;d1=2.0&amp;d2=3.0&amp;d3=3.0&amp;outsidemounts=0&amp;outsidemounts=1&amp;holedist=7.0&amp;thickness=3.0&amp;format=svg&amp;tabs=0.0&amp;debug=0&amp;labels=0&amp;labels=1&amp;reference=100&amp;burn=0.1&amp;render=1
SettingsUrl: http://www.festi.info/ElectronicsBox?FingerJoint_angle=90.0&amp;FingerJoint_style=rectangular&amp;FingerJoint_surroundingspaces=2.0&amp;FingerJoint_edge_width=1.0&amp;FingerJoint_finger=2.0&amp;FingerJoint_play=0.0&amp;FingerJoint_space=2.0&amp;FingerJoint_width=1.0&amp;x=210.0&amp;y=100.0&amp;h=100.0&amp;outside=0&amp;outside=1&amp;triangle=25.0&amp;d1=2.0&amp;d2=3.0&amp;d3=3.0&amp;outsidemounts=0&amp;outsidemounts=1&amp;holedist=7.0&amp;thickness=3.0&amp;format=svg&amp;tabs=0.0&amp;debug=0&amp;labels=0&amp;labels=1&amp;reference=100&amp;burn=0.1
</dc:description>
      </cc:Work>
    </rdf:RDF>
  </metadata>
  <g
     id="p-0"
     style="fill:none;stroke-linecap:round;stroke-linejoin:round;">
    <path
       d="M 10.100 453.900 H 110.100 V 443.900 H 10.100 V 453.900 Z"
       stroke="rgb(0,0,0)"
       stroke-width="0.20"
       id="path1891" />
    <text
       alignment-baseline="hanging"
       font-size="10px"
       style="font-family: sans-serif ; font-weight: normal; font-style: normal; fill: rgb(0,0,0)"
       text-anchor="middle"
       transform="matrix( 1.000 0.000 0.000 1.000 60.100 443.900 )"
       id="text1893">100mm</text>
    <text
       alignment-baseline="hanging"
       font-size="4px"
       style="font-family: sans-serif ; font-weight: normal; font-style: normal; fill: rgb(255,0,0)"
       text-anchor="middle"
       transform="matrix( 1.000 0.000 0.000 1.000 15.100 446.900 )"
       id="text1895" />
  </g>
  <g
     id="p-5"
     style="fill:none;stroke-linecap:round;stroke-linejoin:round"
     transform="translate(-2.6763461,-132.92519)">
    <path
       d="m 18.5,231.7 c 0,0.268 -0.077,0.531 -0.222,0.757 -0.145,0.226 -0.352,0.405 -0.596,0.516 -0.245,0.112 -0.516,0.151 -0.781,0.113 -0.266,-0.038 -0.515,-0.152 -0.718,-0.328 -0.203,-0.176 -0.351,-0.406 -0.426,-0.664 -0.076,-0.257 -0.076,-0.531 0,-0.788 0.075,-0.258 0.223,-0.488 0.426,-0.664 0.203,-0.176 0.452,-0.29 0.718,-0.328 0.265,-0.038 0.536,0.001 0.781,0.113 0.244,0.111 0.451,0.29 0.596,0.516 0.145,0.226 0.222,0.489 0.222,0.757 z"
       stroke="#0000ff"
       stroke-width="0.2"
       id="path1934" />
    <text
       alignment-baseline="hanging"
       font-size="4px"
       style="font-style:normal;font-weight:normal;font-family:sans-serif;fill:#ff0000"
       text-anchor="middle"
       transform="translate(129.1,186.8)"
       id="text1936">Bottom</text>
    <path
       d="m 17.1,238.8 h 10 9 c 0.055,0 0.1,-0.045 0.1,-0.1 v -2.9 c 0,-0.1 -0.1,0 0,0 H 42 c 0.1,0 0,-0.1 0,0 v 2.9 c 0,0.055 0.045,0.1 0.1,0.1 h 6 c 0.055,0 0.1,-0.045 0.1,-0.1 v -2.9 c 0,-0.1 -0.1,0 0,0 H 54 c 0.1,0 0,-0.1 0,0 v 2.9 c 0,0.055 0.045,0.1 0.1,0.1 h 6 c 0.055,0 0.1,-0.045 0.1,-0.1 v -2.9 c 0,-0.1 -0.1,0 0,0 H 66 c 0.1,0 0,-0.1 0,0 v 2.9 c 0,0.055 0.045,0.1 0.1,0.1 h 6 c 0.055,0 0.1,-0.045 0.1,-0.1 v -2.9 c 0,-0.1 -0.1,0 0,0 H 78 c 0.1,0 0,-0.1 0,0 v 2.9 c 0,0.055 0.045,0.1 0.1,0.1 h 6 c 0.055,0 0.1,-0.045 0.1,-0.1 v -2.9 c 0,-0.1 -0.1,0 0,0 H 90 c 0.1,0 0,-0.1 0,0 v 2.9 c 0,0.055 0.045,0.1 0.1,0.1 h 6 c 0.055,0 0.1,-0.045 0.1,-0.1 v -2.9 c 0,-0.1 -0.1,0 0,0 h 5.8 c 0.1,0 0,-0.1 0,0 v 2.9 c 0,0.055 0.045,0.1 0.1,0.1 h 6 c 0.055,0 0.1,-0.045 0.1,-0.1 v -2.9 c 0,-0.1 -0.1,0 0,0 h 5.8 c 0.1,0 0,-0.1 0,0 v 2.9 c 0,0.055 0.045,0.1 0.1,0.1 h 6 c 0.055,0 0.1,-0.045 0.1,-0.1 v -2.9 c 0,-0.1 -0.1,0 0,0 h 5.8 c 0.1,0 0,-0.1 0,0 v 2.9 c 0,0.055 0.045,0.1 0.1,0.1 h 6 c 0.055,0 0.1,-0.045 0.1,-0.1 v -2.9 c 0,-0.1 -0.1,0 0,0 h 5.8 c 0.1,0 0,-0.1 0,0 v 2.9 c 0,0.055 0.045,0.1 0.1,0.1 h 6 c 0.055,0 0.1,-0.045 0.1,-0.1 v -2.9 c 0,-0.1 -0.1,0 0,0 h 5.8 c 0.1,0 0,-0.1 0,0 v 2.9 c 0,0.055 0.045,0.1 0.1,0.1 h 6 c 0.055,0 0.1,-0.045 0.1,-0.1 v -2.9 c 0,-0.1 -0.1,0 0,0 h 5.8 c 0.1,0 0,-0.1 0,0 v 2.9 c 0,0.055 0.045,0.1 0.1,0.1 h 6 c 0.055,0 0.1,-0.045 0.1,-0.1 v -2.9 c 0,-0.1 -0.1,0 0,0 h 5.8 c 0.1,0 0,-0.1 0,0 v 2.9 c 0,0.055 0.045,0.1 0.1,0.1 h 6 c 0.055,0 0.1,-0.045 0.1,-0.1 v -2.9 c 0,-0.1 -0.1,0 0,0 h 5.8 c 0.1,0 0,-0.1 0,0 v 2.9 c 0,0.055 0.045,0.1 0.1,0.1 h 6 c 0.055,0 0.1,-0.045 0.1,-0.1 v -2.9 c 0,-0.1 -0.1,0 0,0 h 5.8 c 0.1,0 0,-0.1 0,0 v 2.9 c 0,0.055 0.045,0.1 0.1,0.1 h 6 c 0.055,0 0.1,-0.045 0.1,-0.1 v -2.9 c 0,-0.1 -0.1,0 0,0 h 5.8 c 0.1,0 0,-0.1 0,0 v 2.9 c 0,0.055 0.045,0.1 0.1,0.1 h 6 c 0.055,0 0.1,-0.045 0.1,-0.1 v -2.9 c 0,-0.1 -0.1,0 0,0 h 5.8 c 0.1,0 0,-0.1 0,0 v 2.9 c 0,0.055 0.045,0.1 0.1,0.1 h 9 10 c 1.246,0 2.471,-0.328 3.55,-0.951 1.079,-0.623 1.976,-1.52 2.599,-2.599 0.623,-1.079 0.951,-2.304 0.951,-3.55 v -86 c 0,-1.246 -0.328,-2.471 -0.951,-3.55 -0.623,-1.079 -1.52,-1.976 -2.599,-2.599 -1.079,-0.623 -2.304,-0.951 -3.55,-0.951 h -10 -9 c -0.055,0 -0.1,0.045 -0.1,0.1 v 2.9 c 0,0.1 0.1,0 0,0 h -5.8 c -0.1,0 0,0.1 0,0 v -2.9 c 0,-0.055 -0.045,-0.1 -0.1,-0.1 h -6 c -0.055,0 -0.1,0.045 -0.1,0.1 v 2.9 c 0,0.1 0.1,0 0,0 h -5.8 c -0.1,0 0,0.1 0,0 v -2.9 c 0,-0.055 -0.045,-0.1 -0.1,-0.1 h -6 c -0.055,0 -0.1,0.045 -0.1,0.1 v 2.9 c 0,0.1 0.1,0 0,0 h -5.8 c -0.1,0 0,0.1 0,0 v -2.9 c 0,-0.055 -0.045,-0.1 -0.1,-0.1 h -6 c -0.055,0 -0.1,0.045 -0.1,0.1 v 2.9 c 0,0.1 0.1,0 0,0 h -5.8 c -0.1,0 0,0.1 0,0 v -2.9 c 0,-0.055 -0.045,-0.1 -0.1,-0.1 h -6 c -0.055,0 -0.1,0.045 -0.1,0.1 v 2.9 c 0,0.1 0.1,0 0,0 h -5.8 c -0.1,0 0,0.1 0,0 v -2.9 c 0,-0.055 -0.045,-0.1 -0.1,-0.1 h -6 c -0.055,0 -0.1,0.045 -0.1,0.1 v 2.9 c 0,0.1 0.1,0 0,0 h -5.8 c -0.1,0 0,0.1 0,0 v -2.9 c 0,-0.055 -0.045,-0.1 -0.1,-0.1 h -6 c -0.055,0 -0.1,0.045 -0.1,0.1 v 2.9 c 0,0.1 0.1,0 0,0 h -5.8 c -0.1,0 0,0.1 0,0 v -2.9 c 0,-0.055 -0.045,-0.1 -0.1,-0.1 h -6 c -0.055,0 -0.1,0.045 -0.1,0.1 v 2.9 c 0,0.1 0.1,0 0,0 h -5.8 c -0.1,0 0,0.1 0,0 v -2.9 c 0,-0.055 -0.045,-0.1 -0.1,-0.1 h -6 c -0.055,0 -0.1,0.045 -0.1,0.1 v 2.9 c 0,0.1 0.1,0 0,0 h -5.8 c -0.1,0 0,0.1 0,0 v -2.9 c 0,-0.055 -0.045,-0.1 -0.1,-0.1 h -6 c -0.055,0 -0.1,0.045 -0.1,0.1 v 2.9 c 0,0.1 0.1,0 0,0 h -5.8 c -0.1,0 0,0.1 0,0 v -2.9 c 0,-0.055 -0.045,-0.1 -0.1,-0.1 h -6 c -0.055,0 -0.1,0.045 -0.1,0.1 v 2.9 c 0,0.1 0.1,0 0,0 h -5.8 c -0.1,0 0,0.1 0,0 v -2.9 c 0,-0.055 -0.045,-0.1 -0.1,-0.1 h -6 c -0.055,0 -0.1,0.045 -0.1,0.1 v 2.9 c 0,0.1 0.1,0 0,0 h -5.8 c -0.1,0 0,0.1 0,0 v -2.9 c 0,-0.055 -0.045,-0.1 -0.1,-0.1 h -6 c -0.055,0 -0.1,0.045 -0.1,0.1 v 2.9 c 0,0.1 0.1,0 0,0 h -5.8 c -0.1,0 0,0.1 0,0 v -2.9 c 0,-0.055 -0.045,-0.1 -0.1,-0.1 h -6 c -0.055,0 -0.1,0.045 -0.1,0.1 v 2.9 c 0,0.1 0.1,0 0,0 h -5.8 c -0.1,0 0,0.1 0,0 v -2.9 c 0,-0.055 -0.045,-0.1 -0.1,-0.1 h -6 c -0.055,0 -0.1,0.045 -0.1,0.1 v 2.9 c 0,0.1 0.1,0 0,0 h -5.8 c -0.1,0 0,0.1 0,0 v -2.9 c 0,-0.055 -0.045,-0.1 -0.1,-0.1 h -6 c -0.055,0 -0.1,0.045 -0.1,0.1 v 2.9 c 0,0.1 0.1,0 0,0 h -5.8 c -0.1,0 0,0.1 0,0 v -2.9 c 0,-0.055 -0.045,-0.1 -0.1,-0.1 h -9 -10 c -1.246,0 -2.471,0.328 -3.55,0.951 -1.079,0.623 -1.976,1.52 -2.599,2.599 C 10.328,143.229 10,144.454 10,145.7 v 86 c 0,1.246 0.328,2.471 0.951,3.55 0.623,1.079 1.52,1.976 2.599,2.599 1.079,0.623 2.304,0.951 3.55,0.951"
       stroke="#000000"
       stroke-width="0.2"
       id="path1938" />
    <path
       d="m 241.1,230.3 c 0.268,0 0.531,0.077 0.757,0.222 0.226,0.145 0.405,0.352 0.516,0.596 0.112,0.245 0.151,0.516 0.113,0.781 -0.038,0.266 -0.152,0.515 -0.328,0.718 -0.176,0.203 -0.406,0.351 -0.664,0.426 -0.257,0.076 -0.531,0.076 -0.788,0 -0.258,-0.075 -0.488,-0.223 -0.664,-0.426 -0.176,-0.203 -0.29,-0.452 -0.328,-0.718 -0.038,-0.265 0.001,-0.536 0.113,-0.781 0.111,-0.244 0.29,-0.451 0.516,-0.596 0.226,-0.145 0.489,-0.222 0.757,-0.222 z"
       stroke="#0000ff"
       stroke-width="0.2"
       id="path1940" />
    <path
       d="m 234.1,224.7 v 2.9 c 0,0.1 0.1,0 0,0 h -2.8 c -0.1,0 0,0.1 0,0 v -5.8 c 0,-0.1 -0.1,0 0,0 h 2.8 c 0.1,0 0,-0.1 0,0 z"
       stroke="#0000ff"
       stroke-width="0.2"
       id="path1942" />
    <path
       d="m 234.1,212.7 v 2.9 c 0,0.1 0.1,0 0,0 h -2.8 c -0.1,0 0,0.1 0,0 v -5.8 c 0,-0.1 -0.1,0 0,0 h 2.8 c 0.1,0 0,-0.1 0,0 z"
       stroke="#0000ff"
       stroke-width="0.2"
       id="path1944" />
    <path
       d="m 234.1,200.7 v 2.9 c 0,0.1 0.1,0 0,0 h -2.8 c -0.1,0 0,0.1 0,0 v -5.8 c 0,-0.1 -0.1,0 0,0 h 2.8 c 0.1,0 0,-0.1 0,0 z"
       stroke="#0000ff"
       stroke-width="0.2"
       id="path1946" />
    <path
       d="m 234.1,188.7 v 2.9 c 0,0.1 0.1,0 0,0 h -2.8 c -0.1,0 0,0.1 0,0 v -5.8 c 0,-0.1 -0.1,0 0,0 h 2.8 c 0.1,0 0,-0.1 0,0 z"
       stroke="#0000ff"
       stroke-width="0.2"
       id="path1948" />
    <path
       d="m 234.1,176.7 v 2.9 c 0,0.1 0.1,0 0,0 h -2.8 c -0.1,0 0,0.1 0,0 v -5.8 c 0,-0.1 -0.1,0 0,0 h 2.8 c 0.1,0 0,-0.1 0,0 z"
       stroke="#0000ff"
       stroke-width="0.2"
       id="path1950" />
    <path
       d="m 234.1,164.7 v 2.9 c 0,0.1 0.1,0 0,0 h -2.8 c -0.1,0 0,0.1 0,0 v -5.8 c 0,-0.1 -0.1,0 0,0 h 2.8 c 0.1,0 0,-0.1 0,0 z"
       stroke="#0000ff"
       stroke-width="0.2"
       id="path1952" />
    <path
       d="m 234.1,152.7 v 2.9 c 0,0.1 0.1,0 0,0 h -2.8 c -0.1,0 0,0.1 0,0 v -5.8 c 0,-0.1 -0.1,0 0,0 h 2.8 c 0.1,0 0,-0.1 0,0 z"
       stroke="#0000ff"
       stroke-width="0.2"
       id="path1954" />
    <path
       d="m 239.7,145.7 c 0,-0.268 0.077,-0.531 0.222,-0.757 0.145,-0.226 0.352,-0.405 0.596,-0.516 0.245,-0.112 0.516,-0.151 0.781,-0.113 0.266,0.038 0.515,0.152 0.718,0.328 0.203,0.176 0.351,0.406 0.426,0.664 0.076,0.257 0.076,0.531 0,0.788 -0.075,0.258 -0.223,0.488 -0.426,0.664 -0.203,0.176 -0.452,0.29 -0.718,0.328 -0.265,0.038 -0.536,-0.001 -0.781,-0.113 -0.244,-0.111 -0.451,-0.29 -0.596,-0.516 -0.145,-0.226 -0.222,-0.489 -0.222,-0.757 z"
       stroke="#0000ff"
       stroke-width="0.2"
       id="path1956" />
    <path
       d="m 17.1,147.1 c -0.268,0 -0.531,-0.077 -0.757,-0.222 -0.226,-0.145 -0.405,-0.352 -0.516,-0.596 -0.112,-0.245 -0.151,-0.516 -0.113,-0.781 0.038,-0.266 0.152,-0.515 0.328,-0.718 0.176,-0.203 0.406,-0.351 0.664,-0.426 0.257,-0.076 0.531,-0.076 0.788,0 0.258,0.075 0.488,0.223 0.664,0.426 0.176,0.203 0.29,0.452 0.328,0.718 0.038,0.265 -0.001,0.536 -0.113,0.781 -0.111,0.244 -0.29,0.451 -0.516,0.596 -0.226,0.145 -0.489,0.222 -0.757,0.222 z"
       stroke="#0000ff"
       stroke-width="0.2"
       id="path1958" />
    <path
       d="m 24.1,152.7 v -2.9 c 0,-0.1 -0.1,0 0,0 h 2.8 c 0.1,0 0,-0.1 0,0 v 5.8 c 0,0.1 0.1,0 0,0 h -2.8 c -0.1,0 0,0.1 0,0 z"
       stroke="#0000ff"
       stroke-width="0.2"
       id="path1960" />
    <path
       d="m 24.1,164.7 v -2.9 c 0,-0.1 -0.1,0 0,0 h 2.8 c 0.1,0 0,-0.1 0,0 v 5.8 c 0,0.1 0.1,0 0,0 h -2.8 c -0.1,0 0,0.1 0,0 z"
       stroke="#0000ff"
       stroke-width="0.2"
       id="path1962" />
    <path
       d="m 24.1,176.7 v -2.9 c 0,-0.1 -0.1,0 0,0 h 2.8 c 0.1,0 0,-0.1 0,0 v 5.8 c 0,0.1 0.1,0 0,0 h -2.8 c -0.1,0 0,0.1 0,0 z"
       stroke="#0000ff"
       stroke-width="0.2"
       id="path1964" />
    <path
       d="m 24.1,188.7 v -2.9 c 0,-0.1 -0.1,0 0,0 h 2.8 c 0.1,0 0,-0.1 0,0 v 5.8 c 0,0.1 0.1,0 0,0 h -2.8 c -0.1,0 0,0.1 0,0 z"
       stroke="#0000ff"
       stroke-width="0.2"
       id="path1966" />
    <path
       d="m 24.1,200.7 v -2.9 c 0,-0.1 -0.1,0 0,0 h 2.8 c 0.1,0 0,-0.1 0,0 v 5.8 c 0,0.1 0.1,0 0,0 h -2.8 c -0.1,0 0,0.1 0,0 z"
       stroke="#0000ff"
       stroke-width="0.2"
       id="path1968" />
    <path
       d="m 24.1,212.7 v -2.9 c 0,-0.1 -0.1,0 0,0 h 2.8 c 0.1,0 0,-0.1 0,0 v 5.8 c 0,0.1 0.1,0 0,0 h -2.8 c -0.1,0 0,0.1 0,0 z"
       stroke="#0000ff"
       stroke-width="0.2"
       id="path1970" />
    <path
       d="m 24.1,224.7 v -2.9 c 0,-0.1 -0.1,0 0,0 h 2.8 c 0.1,0 0,-0.1 0,0 v 5.8 c 0,0.1 0.1,0 0,0 h -2.8 c -0.1,0 0,0.1 0,0 z"
       stroke="#0000ff"
       stroke-width="0.2"
       id="path1972" />
  </g>
</svg>
