<?xml version="1.0" encoding="UTF-8" standalone="no"?>
<svg
   height="463.90mm"
   viewBox="0.0 0.0 331.90 463.90"
   width="331.90mm"
   version="1.1"
   id="svg255"
   sodipodi:docname="wall4-wall2-triangles.svg"
   inkscape:version="1.1.1 (3bf5ae0d25, 2021-09-20)"
   xmlns:inkscape="http://www.inkscape.org/namespaces/inkscape"
   xmlns:sodipodi="http://sodipodi.sourceforge.net/DTD/sodipodi-0.dtd"
   xmlns="http://www.w3.org/2000/svg"
   xmlns:svg="http://www.w3.org/2000/svg"
   xmlns:rdf="http://www.w3.org/1999/02/22-rdf-syntax-ns#"
   xmlns:cc="http://creativecommons.org/ns#"
   xmlns:dc="http://purl.org/dc/elements/1.1/">
  <defs
     id="defs259" />
  <sodipodi:namedview
     id="namedview257"
     pagecolor="#ffffff"
     bordercolor="#666666"
     borderopacity="1.0"
     inkscape:pageshadow="2"
     inkscape:pageopacity="0.0"
     inkscape:pagecheckerboard="0"
     inkscape:document-units="mm"
     showgrid="false"
     inkscape:zoom="0.20043774"
     inkscape:cx="513.87527"
     inkscape:cy="957.90341"
     inkscape:window-width="761"
     inkscape:window-height="696"
     inkscape:window-x="-7"
     inkscape:window-y="0"
     inkscape:window-maximized="0"
     inkscape:current-layer="svg255" />
  <!--
ElectronicsBox - Closed box with screw on top and mounting holes

Created with Boxes.py (https://festi.info/boxes.py)
Creation date: 2022-01-06 10:33:15
Command line (remove spaces between dashes): boxes ElectronicsBox - -FingerJoint_angle=90.0 - -FingerJoint_style=rectangular - -FingerJoint_surroundingspaces=2.0 - -FingerJoint_edge_width=1.0 - -FingerJoint_finger=2.0 - -FingerJoint_play=0.0 - -FingerJoint_space=2.0 - -FingerJoint_width=1.0 - -x=210.0 - -y=100.0 - -h=100.0 - -outside=0 - -outside=1 - -triangle=25.0 - -d1=2.0 - -d2=3.0 - -d3=3.0 - -outsidemounts=0 - -outsidemounts=1 - -holedist=7.0 - -thickness=3.0 - -format=svg - -tabs=0.0 - -debug=0 - -labels=0 - -labels=1 - -reference=100 - -burn=0.1
Url: http://www.festi.info/ElectronicsBox?FingerJoint_angle=90.0&FingerJoint_style=rectangular&FingerJoint_surroundingspaces=2.0&FingerJoint_edge_width=1.0&FingerJoint_finger=2.0&FingerJoint_play=0.0&FingerJoint_space=2.0&FingerJoint_width=1.0&x=210.0&y=100.0&h=100.0&outside=0&outside=1&triangle=25.0&d1=2.0&d2=3.0&d3=3.0&outsidemounts=0&outsidemounts=1&holedist=7.0&thickness=3.0&format=svg&tabs=0.0&debug=0&labels=0&labels=1&reference=100&burn=0.1&render=1
SettingsUrl: http://www.festi.info/ElectronicsBox?FingerJoint_angle=90.0&FingerJoint_style=rectangular&FingerJoint_surroundingspaces=2.0&FingerJoint_edge_width=1.0&FingerJoint_finger=2.0&FingerJoint_play=0.0&FingerJoint_space=2.0&FingerJoint_width=1.0&x=210.0&y=100.0&h=100.0&outside=0&outside=1&triangle=25.0&d1=2.0&d2=3.0&d3=3.0&outsidemounts=0&outsidemounts=1&holedist=7.0&thickness=3.0&format=svg&tabs=0.0&debug=0&labels=0&labels=1&reference=100&burn=0.1
-->
  <title
     id="title135">ElectronicsBox</title>
  <metadata
     id="metadata137">
    <rdf:RDF>
      <cc:Work>
        <dc:title>ElectronicsBox</dc:title>
        <dc:date>2022-01-06 10:33:15</dc:date>
        <dc:source>http://www.festi.info/ElectronicsBox?FingerJoint_angle=90.0&amp;FingerJoint_style=rectangular&amp;FingerJoint_surroundingspaces=2.0&amp;FingerJoint_edge_width=1.0&amp;FingerJoint_finger=2.0&amp;FingerJoint_play=0.0&amp;FingerJoint_space=2.0&amp;FingerJoint_width=1.0&amp;x=210.0&amp;y=100.0&amp;h=100.0&amp;outside=0&amp;outside=1&amp;triangle=25.0&amp;d1=2.0&amp;d2=3.0&amp;d3=3.0&amp;outsidemounts=0&amp;outsidemounts=1&amp;holedist=7.0&amp;thickness=3.0&amp;format=svg&amp;tabs=0.0&amp;debug=0&amp;labels=0&amp;labels=1&amp;reference=100&amp;burn=0.1&amp;render=1</dc:source>
        <dc:description>Closed box with screw on top and mounting holes

Created with Boxes.py (https://festi.info/boxes.py)
Command line: boxes ElectronicsBox --FingerJoint_angle=90.0 --FingerJoint_style=rectangular --FingerJoint_surroundingspaces=2.0 --FingerJoint_edge_width=1.0 --FingerJoint_finger=2.0 --FingerJoint_play=0.0 --FingerJoint_space=2.0 --FingerJoint_width=1.0 --x=210.0 --y=100.0 --h=100.0 --outside=0 --outside=1 --triangle=25.0 --d1=2.0 --d2=3.0 --d3=3.0 --outsidemounts=0 --outsidemounts=1 --holedist=7.0 --thickness=3.0 --format=svg --tabs=0.0 --debug=0 --labels=0 --labels=1 --reference=100 --burn=0.1
Url: http://www.festi.info/ElectronicsBox?FingerJoint_angle=90.0&amp;FingerJoint_style=rectangular&amp;FingerJoint_surroundingspaces=2.0&amp;FingerJoint_edge_width=1.0&amp;FingerJoint_finger=2.0&amp;FingerJoint_play=0.0&amp;FingerJoint_space=2.0&amp;FingerJoint_width=1.0&amp;x=210.0&amp;y=100.0&amp;h=100.0&amp;outside=0&amp;outside=1&amp;triangle=25.0&amp;d1=2.0&amp;d2=3.0&amp;d3=3.0&amp;outsidemounts=0&amp;outsidemounts=1&amp;holedist=7.0&amp;thickness=3.0&amp;format=svg&amp;tabs=0.0&amp;debug=0&amp;labels=0&amp;labels=1&amp;reference=100&amp;burn=0.1&amp;render=1
SettingsUrl: http://www.festi.info/ElectronicsBox?FingerJoint_angle=90.0&amp;FingerJoint_style=rectangular&amp;FingerJoint_surroundingspaces=2.0&amp;FingerJoint_edge_width=1.0&amp;FingerJoint_finger=2.0&amp;FingerJoint_play=0.0&amp;FingerJoint_space=2.0&amp;FingerJoint_width=1.0&amp;x=210.0&amp;y=100.0&amp;h=100.0&amp;outside=0&amp;outside=1&amp;triangle=25.0&amp;d1=2.0&amp;d2=3.0&amp;d3=3.0&amp;outsidemounts=0&amp;outsidemounts=1&amp;holedist=7.0&amp;thickness=3.0&amp;format=svg&amp;tabs=0.0&amp;debug=0&amp;labels=0&amp;labels=1&amp;reference=100&amp;burn=0.1
</dc:description>
      </cc:Work>
    </rdf:RDF>
  </metadata>
  <g
     id="p-2"
     style="fill:none;stroke-linecap:round;stroke-linejoin:round"
     transform="translate(-27.73834,-332.1773)">
    <path
       d="m 237.3,348 h -2.9 c -0.1,0 0,0.1 0,0 v -2.8 c 0,-0.1 -0.1,0 0,0 h 5.8 c 0.1,0 0,-0.1 0,0 v 2.8 c 0,0.1 0.1,0 0,0 z"
       stroke="#0000ff"
       stroke-width="0.2"
       id="path155" />
    <path
       d="m 306.3,345.2 h 2.9 c 0.1,0 0,-0.1 0,0 v 2.8 c 0,0.1 0.1,0 0,0 h -5.8 c -0.1,0 0,0.1 0,0 v -2.8 c 0,-0.1 -0.1,0 0,0 z"
       stroke="#0000ff"
       stroke-width="0.2"
       id="path157" />
    <text
       alignment-baseline="hanging"
       font-size="4px"
       style="font-style:normal;font-weight:normal;font-family:sans-serif;fill:#ff0000"
       text-anchor="middle"
       transform="translate(271.8,390.2)"
       id="text159">Wall 2</text>
    <path
       d="m 224.8,439.2 h 7.9 c 0.1,0 0,-0.1 0,0 v 2.9 c 0,0.055 0.045,0.1 0.1,0.1 h 6 c 0.055,0 0.1,-0.045 0.1,-0.1 v -2.9 c 0,-0.1 -0.1,0 0,0 h 5.8 c 0.1,0 0,-0.1 0,0 v 2.9 c 0,0.055 0.045,0.1 0.1,0.1 h 6 c 0.055,0 0.1,-0.045 0.1,-0.1 v -2.9 c 0,-0.1 -0.1,0 0,0 h 5.8 c 0.1,0 0,-0.1 0,0 v 2.9 c 0,0.055 0.045,0.1 0.1,0.1 h 6 c 0.055,0 0.1,-0.045 0.1,-0.1 v -2.9 c 0,-0.1 -0.1,0 0,0 h 5.8 c 0.1,0 0,-0.1 0,0 v 2.9 c 0,0.055 0.045,0.1 0.1,0.1 h 6 c 0.055,0 0.1,-0.045 0.1,-0.1 v -2.9 c 0,-0.1 -0.1,0 0,0 h 5.8 c 0.1,0 0,-0.1 0,0 v 2.9 c 0,0.055 0.045,0.1 0.1,0.1 h 6 c 0.055,0 0.1,-0.045 0.1,-0.1 v -2.9 c 0,-0.1 -0.1,0 0,0 h 5.8 c 0.1,0 0,-0.1 0,0 v 2.9 c 0,0.055 0.045,0.1 0.1,0.1 h 6 c 0.055,0 0.1,-0.045 0.1,-0.1 v -2.9 c 0,-0.1 -0.1,0 0,0 h 5.8 c 0.1,0 0,-0.1 0,0 v 2.9 c 0,0.055 0.045,0.1 0.1,0.1 h 6 c 0.055,0 0.1,-0.045 0.1,-0.1 v -2.9 c 0,-0.1 -0.1,0 0,0 h 7.9 c 0.055,0 0.1,-0.045 0.1,-0.1 v -9.4 c 0,-0.1 -0.1,0 0,0 h 2.9 c 0.055,0 0.1,-0.045 0.1,-0.1 v -6 c 0,-0.055 -0.045,-0.1 -0.1,-0.1 h -2.9 c -0.1,0 0,0.1 0,0 v -5.8 c 0,-0.1 -0.1,0 0,0 h 2.9 c 0.055,0 0.1,-0.045 0.1,-0.1 v -6 c 0,-0.055 -0.045,-0.1 -0.1,-0.1 h -2.9 c -0.1,0 0,0.1 0,0 v -5.8 c 0,-0.1 -0.1,0 0,0 h 2.9 c 0.055,0 0.1,-0.045 0.1,-0.1 v -6 c 0,-0.055 -0.045,-0.1 -0.1,-0.1 h -2.9 c -0.1,0 0,0.1 0,0 v -5.8 c 0,-0.1 -0.1,0 0,0 h 2.9 c 0.055,0 0.1,-0.045 0.1,-0.1 v -6 c 0,-0.055 -0.045,-0.1 -0.1,-0.1 h -2.9 c -0.1,0 0,0.1 0,0 v -5.8 c 0,-0.1 -0.1,0 0,0 h 2.9 c 0.055,0 0.1,-0.045 0.1,-0.1 v -6 c 0,-0.055 -0.045,-0.1 -0.1,-0.1 h -2.9 c -0.1,0 0,0.1 0,0 v -5.8 c 0,-0.1 -0.1,0 0,0 h 2.9 c 0.055,0 0.1,-0.045 0.1,-0.1 v -6 c 0,-0.055 -0.045,-0.1 -0.1,-0.1 h -2.9 c -0.1,0 0,0.1 0,0 v -5.8 c 0,-0.1 -0.1,0 0,0 h 2.9 c 0.055,0 0.1,-0.045 0.1,-0.1 v -6 c 0,-0.055 -0.045,-0.1 -0.1,-0.1 h -2.9 c -0.1,0 0,0.1 0,0 v -9.4 c 0,-0.055 -0.045,-0.1 -0.1,-0.1 h -94 c -0.055,0 -0.1,0.045 -0.1,0.1 v 9.4 c 0,0.1 0.1,0 0,0 h -2.9 c -0.055,0 -0.1,0.045 -0.1,0.1 v 6 c 0,0.055 0.045,0.1 0.1,0.1 h 2.9 c 0.1,0 0,-0.1 0,0 v 5.8 c 0,0.1 0.1,0 0,0 h -2.9 c -0.055,0 -0.1,0.045 -0.1,0.1 v 6 c 0,0.055 0.045,0.1 0.1,0.1 h 2.9 c 0.1,0 0,-0.1 0,0 v 5.8 c 0,0.1 0.1,0 0,0 h -2.9 c -0.055,0 -0.1,0.045 -0.1,0.1 v 6 c 0,0.055 0.045,0.1 0.1,0.1 h 2.9 c 0.1,0 0,-0.1 0,0 v 5.8 c 0,0.1 0.1,0 0,0 h -2.9 c -0.055,0 -0.1,0.045 -0.1,0.1 v 6 c 0,0.055 0.045,0.1 0.1,0.1 h 2.9 c 0.1,0 0,-0.1 0,0 v 5.8 c 0,0.1 0.1,0 0,0 h -2.9 c -0.055,0 -0.1,0.045 -0.1,0.1 v 6 c 0,0.055 0.045,0.1 0.1,0.1 h 2.9 c 0.1,0 0,-0.1 0,0 v 5.8 c 0,0.1 0.1,0 0,0 h -2.9 c -0.055,0 -0.1,0.045 -0.1,0.1 v 6 c 0,0.055 0.045,0.1 0.1,0.1 h 2.9 c 0.1,0 0,-0.1 0,0 v 5.8 c 0,0.1 0.1,0 0,0 h -2.9 c -0.055,0 -0.1,0.045 -0.1,0.1 v 6 c 0,0.055 0.045,0.1 0.1,0.1 h 2.9 c 0.1,0 0,-0.1 0,0 v 9.4 c 0,0.055 0.045,0.1 0.1,0.1"
       stroke="#000000"
       stroke-width="0.2"
       id="path161" />
  </g>
  <g
     id="p-3"
     style="fill:none;stroke-linecap:round;stroke-linejoin:round"
     transform="translate(-133.21258,-230.16327)">
    <path
       d="m 237.3,246.3 h -2.9 c -0.1,0 0,0.1 0,0 v -2.8 c 0,-0.1 -0.1,0 0,0 h 5.8 c 0.1,0 0,-0.1 0,0 v 2.8 c 0,0.1 0.1,0 0,0 z"
       stroke="#0000ff"
       stroke-width="0.2"
       id="path164" />
    <path
       d="m 306.3,243.5 h 2.9 c 0.1,0 0,-0.1 0,0 v 2.8 c 0,0.1 0.1,0 0,0 h -5.8 c -0.1,0 0,0.1 0,0 v -2.8 c 0,-0.1 -0.1,0 0,0 z"
       stroke="#0000ff"
       stroke-width="0.2"
       id="path166" />
    <text
       alignment-baseline="hanging"
       font-size="4px"
       style="font-style:normal;font-weight:normal;font-family:sans-serif;fill:#ff0000"
       text-anchor="middle"
       transform="translate(271.8,288.5)"
       id="text168">Wall 4</text>
    <path
       d="m 224.8,337.5 h 7.9 c 0.1,0 0,-0.1 0,0 v 2.9 c 0,0.055 0.045,0.1 0.1,0.1 h 6 c 0.055,0 0.1,-0.045 0.1,-0.1 v -2.9 c 0,-0.1 -0.1,0 0,0 h 5.8 c 0.1,0 0,-0.1 0,0 v 2.9 c 0,0.055 0.045,0.1 0.1,0.1 h 6 c 0.055,0 0.1,-0.045 0.1,-0.1 v -2.9 c 0,-0.1 -0.1,0 0,0 h 5.8 c 0.1,0 0,-0.1 0,0 v 2.9 c 0,0.055 0.045,0.1 0.1,0.1 h 6 c 0.055,0 0.1,-0.045 0.1,-0.1 v -2.9 c 0,-0.1 -0.1,0 0,0 h 5.8 c 0.1,0 0,-0.1 0,0 v 2.9 c 0,0.055 0.045,0.1 0.1,0.1 h 6 c 0.055,0 0.1,-0.045 0.1,-0.1 v -2.9 c 0,-0.1 -0.1,0 0,0 h 5.8 c 0.1,0 0,-0.1 0,0 v 2.9 c 0,0.055 0.045,0.1 0.1,0.1 h 6 c 0.055,0 0.1,-0.045 0.1,-0.1 v -2.9 c 0,-0.1 -0.1,0 0,0 h 5.8 c 0.1,0 0,-0.1 0,0 v 2.9 c 0,0.055 0.045,0.1 0.1,0.1 h 6 c 0.055,0 0.1,-0.045 0.1,-0.1 v -2.9 c 0,-0.1 -0.1,0 0,0 h 5.8 c 0.1,0 0,-0.1 0,0 v 2.9 c 0,0.055 0.045,0.1 0.1,0.1 h 6 c 0.055,0 0.1,-0.045 0.1,-0.1 v -2.9 c 0,-0.1 -0.1,0 0,0 h 7.9 c 0.055,0 0.1,-0.045 0.1,-0.1 V 328 c 0,-0.1 -0.1,0 0,0 h 2.9 c 0.055,0 0.1,-0.045 0.1,-0.1 v -6 c 0,-0.055 -0.045,-0.1 -0.1,-0.1 h -2.9 c -0.1,0 0,0.1 0,0 V 316 c 0,-0.1 -0.1,0 0,0 h 2.9 c 0.055,0 0.1,-0.045 0.1,-0.1 v -6 c 0,-0.055 -0.045,-0.1 -0.1,-0.1 h -2.9 c -0.1,0 0,0.1 0,0 V 304 c 0,-0.1 -0.1,0 0,0 h 2.9 c 0.055,0 0.1,-0.045 0.1,-0.1 v -6 c 0,-0.055 -0.045,-0.1 -0.1,-0.1 h -2.9 c -0.1,0 0,0.1 0,0 V 292 c 0,-0.1 -0.1,0 0,0 h 2.9 c 0.055,0 0.1,-0.045 0.1,-0.1 v -6 c 0,-0.055 -0.045,-0.1 -0.1,-0.1 h -2.9 c -0.1,0 0,0.1 0,0 V 280 c 0,-0.1 -0.1,0 0,0 h 2.9 c 0.055,0 0.1,-0.045 0.1,-0.1 v -6 c 0,-0.055 -0.045,-0.1 -0.1,-0.1 h -2.9 c -0.1,0 0,0.1 0,0 V 268 c 0,-0.1 -0.1,0 0,0 h 2.9 c 0.055,0 0.1,-0.045 0.1,-0.1 v -6 c 0,-0.055 -0.045,-0.1 -0.1,-0.1 h -2.9 c -0.1,0 0,0.1 0,0 V 256 c 0,-0.1 -0.1,0 0,0 h 2.9 c 0.055,0 0.1,-0.045 0.1,-0.1 v -6 c 0,-0.055 -0.045,-0.1 -0.1,-0.1 h -2.9 c -0.1,0 0,0.1 0,0 v -9.4 c 0,-0.055 -0.045,-0.1 -0.1,-0.1 h -94 c -0.055,0 -0.1,0.045 -0.1,0.1 v 9.4 c 0,0.1 0.1,0 0,0 h -2.9 c -0.055,0 -0.1,0.045 -0.1,0.1 v 6 c 0,0.055 0.045,0.1 0.1,0.1 h 2.9 c 0.1,0 0,-0.1 0,0 v 5.8 c 0,0.1 0.1,0 0,0 h -2.9 c -0.055,0 -0.1,0.045 -0.1,0.1 v 6 c 0,0.055 0.045,0.1 0.1,0.1 h 2.9 c 0.1,0 0,-0.1 0,0 v 5.8 c 0,0.1 0.1,0 0,0 h -2.9 c -0.055,0 -0.1,0.045 -0.1,0.1 v 6 c 0,0.055 0.045,0.1 0.1,0.1 h 2.9 c 0.1,0 0,-0.1 0,0 v 5.8 c 0,0.1 0.1,0 0,0 h -2.9 c -0.055,0 -0.1,0.045 -0.1,0.1 v 6 c 0,0.055 0.045,0.1 0.1,0.1 h 2.9 c 0.1,0 0,-0.1 0,0 v 5.8 c 0,0.1 0.1,0 0,0 h -2.9 c -0.055,0 -0.1,0.045 -0.1,0.1 v 6 c 0,0.055 0.045,0.1 0.1,0.1 h 2.9 c 0.1,0 0,-0.1 0,0 v 5.8 c 0,0.1 0.1,0 0,0 h -2.9 c -0.055,0 -0.1,0.045 -0.1,0.1 v 6 c 0,0.055 0.045,0.1 0.1,0.1 h 2.9 c 0.1,0 0,-0.1 0,0 v 5.8 c 0,0.1 0.1,0 0,0 h -2.9 c -0.055,0 -0.1,0.045 -0.1,0.1 v 6 c 0,0.055 0.045,0.1 0.1,0.1 h 2.9 c 0.1,0 0,-0.1 0,0 v 9.4 c 0,0.055 0.045,0.1 0.1,0.1"
       stroke="#000000"
       stroke-width="0.2"
       id="path170" />
  </g>
  <g
     id="p-7"
     style="fill:none;stroke-linecap:round;stroke-linejoin:round;">
    <path
       d="M 17.908 38.400 H 27.308 C 27.408 38.400 27.308 38.300 27.308 38.400 V 41.300 C 27.308 41.355 27.353 41.400 27.408 41.400 H 33.408 C 33.464 41.400 33.508 41.355 33.508 41.300 V 38.400 C 33.508 38.300 33.408 38.400 33.508 38.400 H 42.908 C 42.964 38.400 43.008 38.355 43.008 38.300 V 28.900 C 43.008 28.800 42.908 28.900 43.008 28.900 H 45.908 C 45.964 28.900 46.008 28.855 46.008 28.800 V 22.800 C 46.008 22.745 45.964 22.700 45.908 22.700 H 43.008 C 42.908 22.700 43.008 22.800 43.008 22.700 V 13.300 C 43.008 13.245 42.964 13.200 42.908 13.200 C 42.882 13.200 42.856 13.211 42.838 13.229 L 17.838 38.229 C 17.819 38.248 17.808 38.273 17.808 38.300 C 17.808 38.355 17.853 38.400 17.908 38.400 Z"
       stroke="rgb(0,0,0)"
       stroke-width="0.20"
       id="path236" />
    <path
       d="M 34.575 29.067 C 34.748 29.067 34.916 29.116 35.062 29.210 C 35.207 29.303 35.322 29.436 35.394 29.593 C 35.465 29.750 35.490 29.924 35.466 30.095 C 35.441 30.266 35.368 30.426 35.255 30.556 C 35.142 30.686 34.994 30.782 34.829 30.830 C 34.663 30.879 34.487 30.879 34.321 30.830 C 34.156 30.782 34.008 30.686 33.895 30.556 C 33.782 30.426 33.709 30.266 33.684 30.095 C 33.660 29.924 33.685 29.750 33.756 29.593 C 33.828 29.436 33.943 29.303 34.088 29.210 C 34.234 29.116 34.402 29.067 34.575 29.067 Z"
       stroke="rgb(0,0,255)"
       stroke-width="0.20"
       id="path238" />
    <path
       d="M 38.100 13.000 H 28.700 C 28.600 13.000 28.700 13.100 28.700 13.000 V 10.100 C 28.700 10.045 28.655 10.000 28.600 10.000 H 22.600 C 22.545 10.000 22.500 10.045 22.500 10.100 V 13.000 C 22.500 13.100 22.600 13.000 22.500 13.000 H 13.100 C 13.045 13.000 13.000 13.045 13.000 13.100 V 22.500 C 13.000 22.600 13.100 22.500 13.000 22.500 H 10.100 C 10.045 22.500 10.000 22.545 10.000 22.600 V 28.600 C 10.000 28.655 10.045 28.700 10.100 28.700 H 13.000 C 13.100 28.700 13.000 28.600 13.000 28.700 V 38.100 C 13.000 38.155 13.045 38.200 13.100 38.200 C 13.127 38.200 13.152 38.189 13.171 38.171 L 38.171 13.171 C 38.189 13.152 38.200 13.127 38.200 13.100 C 38.200 13.045 38.155 13.000 38.100 13.000 Z"
       stroke="rgb(0,0,0)"
       stroke-width="0.20"
       id="path240" />
    <path
       d="M 21.433 22.333 C 21.261 22.333 21.092 22.284 20.947 22.190 C 20.802 22.097 20.686 21.964 20.615 21.807 C 20.543 21.650 20.518 21.476 20.542 21.305 C 20.567 21.134 20.640 20.974 20.753 20.844 C 20.866 20.714 21.014 20.618 21.180 20.570 C 21.345 20.521 21.521 20.521 21.687 20.570 C 21.852 20.618 22.001 20.714 22.114 20.844 C 22.226 20.974 22.300 21.134 22.324 21.305 C 22.349 21.476 22.324 21.650 22.252 21.807 C 22.180 21.964 22.065 22.097 21.920 22.190 C 21.775 22.284 21.606 22.333 21.433 22.333 Z"
       stroke="rgb(0,0,255)"
       stroke-width="0.20"
       id="path242" />
    <path
       d="M 55.417 38.400 H 64.817 C 64.917 38.400 64.817 38.300 64.817 38.400 V 41.300 C 64.817 41.355 64.861 41.400 64.917 41.400 H 70.917 C 70.972 41.400 71.017 41.355 71.017 41.300 V 38.400 C 71.017 38.300 70.917 38.400 71.017 38.400 H 80.417 C 80.472 38.400 80.517 38.355 80.517 38.300 V 28.900 C 80.517 28.800 80.417 28.900 80.517 28.900 H 83.417 C 83.472 28.900 83.517 28.855 83.517 28.800 V 22.800 C 83.517 22.745 83.472 22.700 83.417 22.700 H 80.517 C 80.417 22.700 80.517 22.800 80.517 22.700 V 13.300 C 80.517 13.245 80.472 13.200 80.417 13.200 C 80.390 13.200 80.365 13.211 80.346 13.229 L 55.346 38.229 C 55.327 38.248 55.317 38.273 55.317 38.300 C 55.317 38.355 55.361 38.400 55.417 38.400 Z"
       stroke="rgb(0,0,0)"
       stroke-width="0.20"
       id="path244" />
    <path
       d="M 72.083 29.067 C 72.256 29.067 72.425 29.116 72.570 29.210 C 72.715 29.303 72.830 29.436 72.902 29.593 C 72.974 29.750 72.999 29.924 72.974 30.095 C 72.950 30.266 72.876 30.426 72.763 30.556 C 72.651 30.686 72.502 30.782 72.337 30.830 C 72.171 30.879 71.995 30.879 71.830 30.830 C 71.664 30.782 71.516 30.686 71.403 30.556 C 71.290 30.426 71.217 30.266 71.192 30.095 C 71.168 29.924 71.193 29.750 71.265 29.593 C 71.336 29.436 71.452 29.303 71.597 29.210 C 71.742 29.116 71.911 29.067 72.083 29.067 Z"
       stroke="rgb(0,0,255)"
       stroke-width="0.20"
       id="path246" />
    <path
       d="M 75.608 13.000 H 66.208 C 66.108 13.000 66.208 13.100 66.208 13.000 V 10.100 C 66.208 10.045 66.164 10.000 66.108 10.000 H 60.108 C 60.053 10.000 60.008 10.045 60.008 10.100 V 13.000 C 60.008 13.100 60.108 13.000 60.008 13.000 H 50.608 C 50.553 13.000 50.508 13.045 50.508 13.100 V 22.500 C 50.508 22.600 50.608 22.500 50.508 22.500 H 47.608 C 47.553 22.500 47.508 22.545 47.508 22.600 V 28.600 C 47.508 28.655 47.553 28.700 47.608 28.700 H 50.508 C 50.608 28.700 50.508 28.600 50.508 28.700 V 38.100 C 50.508 38.155 50.553 38.200 50.608 38.200 C 50.635 38.200 50.660 38.189 50.679 38.171 L 75.679 13.171 C 75.698 13.152 75.708 13.127 75.708 13.100 C 75.708 13.045 75.664 13.000 75.608 13.000 Z"
       stroke="rgb(0,0,0)"
       stroke-width="0.20"
       id="path248" />
    <path
       d="M 58.942 22.333 C 58.769 22.333 58.600 22.284 58.455 22.190 C 58.310 22.097 58.195 21.964 58.123 21.807 C 58.051 21.650 58.026 21.476 58.051 21.305 C 58.075 21.134 58.148 20.974 58.261 20.844 C 58.374 20.714 58.523 20.618 58.688 20.570 C 58.854 20.521 59.030 20.521 59.195 20.570 C 59.361 20.618 59.509 20.714 59.622 20.844 C 59.735 20.974 59.808 21.134 59.832 21.305 C 59.857 21.476 59.832 21.650 59.760 21.807 C 59.689 21.964 59.573 22.097 59.428 22.190 C 59.283 22.284 59.114 22.333 58.942 22.333 Z"
       stroke="rgb(0,0,255)"
       stroke-width="0.20"
       id="path250" />
    <text
       alignment-baseline="hanging"
       font-size="4px"
       style="font-family: sans-serif ; font-weight: normal; font-style: normal; fill: rgb(255,0,0)"
       text-anchor="middle"
       transform="matrix( 1.000 0.000 0.000 1.000 46.758 23.700 )"
       id="text252" />
  </g>
</svg>
